<?xml version="1.0" encoding="iso-8859-1"?>
<!-- Generator: Adobe Illustrator 19.0.0, SVG Export Plug-In . SVG Version: 6.00 Build 0)  -->
<svg version="1.1" id="Layer_1" xmlns="http://www.w3.org/2000/svg" xmlns:xlink="http://www.w3.org/1999/xlink" x="0px" y="0px"
	 viewBox="0 0 512 512" style="enable-background:new 0 0 512 512;" xml:space="preserve">
<g>
	<g>
		<path d="M396.021,491.656H284.91v-42.683h91.325c5.617,0,10.172-4.554,10.172-10.172v-15.106h9.613
			c5.617,0,10.172-4.554,10.172-10.172c0-5.618-4.555-10.172-10.172-10.172h-9.613v-15.096c0-5.618-4.555-10.172-10.172-10.172
			H284.91v-30.344h91.325c5.617,0,10.172-4.554,10.172-10.172V322.46h9.613c5.617,0,10.172-4.554,10.172-10.172
			c0-5.618-4.555-10.172-10.172-10.172h-9.613V287.01c0-5.618-4.555-10.172-10.172-10.172h-41.176v-67.971h13.865v10.172
			c0,5.618,4.555,10.172,10.172,10.172s10.172-4.554,10.172-10.172V178.35c0-5.618-4.555-10.172-10.172-10.172
			s-10.172,4.554-10.172,10.172v10.172h-13.865V44.636C335.059,20.024,315.035,0,290.423,0h-66.354
			c-24.612,0-44.636,20.024-44.636,44.636v232.202h-43.659c-5.617,0-10.172,4.554-10.172,10.172v15.106h-9.623
			c-5.617,0-10.172,4.554-10.172,10.172c0,5.618,4.555,10.172,10.172,10.172h9.623v15.106c0,5.618,4.555,10.172,10.172,10.172
			h91.317v30.344h-91.317c-5.617,0-10.172,4.554-10.172,10.172v15.096h-9.623c-5.617,0-10.172,4.554-10.172,10.172
			c0,5.618,4.555,10.172,10.172,10.172h9.623V438.8c0,5.618,4.555,10.172,10.172,10.172h91.317v42.683H115.979
			c-5.617,0-10.172,4.554-10.172,10.172c0,5.618,4.555,10.172,10.172,10.172h280.042c5.617,0,10.172-4.554,10.172-10.172
			C406.193,496.21,401.638,491.656,396.021,491.656z M284.911,398.427h81.153v30.201h-81.153V398.427z M366.064,297.182v30.212
			h-81.153v-30.212H366.064z M227.092,428.628h-81.145v-30.201h81.145V428.628z M227.092,327.394h-81.145v-30.212h81.145V327.394z
			 M264.566,491.656h-17.13v-67.961h17.13V491.656z M247.435,403.35v-80.89h17.13v80.89H247.435z M264.565,287.01v15.106h-17.13
			V287.01c0-5.618-4.555-10.172-10.172-10.172h-37.486V111.376h0.001h12.583c5.617,0,10.172-4.554,10.172-10.172
			c0-5.618-4.555-10.172-10.172-10.172h-12.583V44.636c0-13.394,10.898-24.291,24.291-24.291h66.354
			c13.394,0,24.291,10.896,24.291,24.291v46.396h-36.488c-5.617,0-10.172,4.554-10.172,10.172c0,5.618,4.555,10.172,10.172,10.172
			h36.488v165.462h-39.977C269.12,276.838,264.565,281.392,264.565,287.01z"/>
	</g>
</g>
<g>
	<g>
		<path d="M250.761,91.031h-7.375c-5.617,0-10.172,4.554-10.172,10.172c0,5.618,4.555,10.172,10.172,10.172h7.375
			c5.617,0,10.172-4.554,10.172-10.172C260.934,95.586,256.378,91.031,250.761,91.031z"/>
	</g>
</g>
<g>
</g>
<g>
</g>
<g>
</g>
<g>
</g>
<g>
</g>
<g>
</g>
<g>
</g>
<g>
</g>
<g>
</g>
<g>
</g>
<g>
</g>
<g>
</g>
<g>
</g>
<g>
</g>
<g>
</g>
</svg>
