<?xml version="1.0" encoding="iso-8859-1"?>
<!-- Generator: Adobe Illustrator 19.0.0, SVG Export Plug-In . SVG Version: 6.00 Build 0)  -->
<svg version="1.1" id="Layer_1" xmlns="http://www.w3.org/2000/svg" xmlns:xlink="http://www.w3.org/1999/xlink" x="0px" y="0px"
	 viewBox="0 0 512 512" style="enable-background:new 0 0 512 512;" xml:space="preserve">
<g>
	<g>
		<path d="M455.794,10.262H342.545c-17.694,0-32.088,14.395-32.088,32.089v7.937H201.541v-7.937
			c0-17.694-14.395-32.089-32.088-32.089H56.206c-17.694,0-32.088,14.395-32.088,32.089v39.353
			c0,17.694,14.395,32.089,32.088,32.089h113.248c17.694,0,32.088-14.395,32.088-32.089V70.688h44.259v99.616
			c0,5.632,4.566,10.199,10.199,10.199c5.632,0,10.199-4.567,10.199-10.199V70.688h44.259v11.017
			c0,17.694,14.394,32.089,32.088,32.089h113.248c17.694,0,32.088-14.395,32.088-32.089V42.351
			C487.882,24.658,473.488,10.262,455.794,10.262z M181.143,81.704c0,6.446-5.244,11.69-11.689,11.69H56.206
			c-6.446,0-11.689-5.244-11.689-11.69V42.351c0-6.446,5.244-11.69,11.689-11.69h113.248c6.446,0,11.689,5.244,11.689,11.69V81.704z
			 M467.484,81.704c0,6.446-5.244,11.69-11.689,11.69H342.545c-6.445,0-11.689-5.244-11.689-11.69V42.351h0.001
			c0-6.446,5.244-11.69,11.689-11.69h113.248c6.445,0,11.689,5.244,11.689,11.69V81.704z"/>
	</g>
</g>
<g>
	<g>
		<path d="M256,192.946c-5.633,0-10.199,4.567-10.199,10.199v7.183c0,5.632,4.566,10.199,10.199,10.199
			c5.632,0,10.199-4.567,10.199-10.199v-7.183C266.199,197.513,261.632,192.946,256,192.946z"/>
	</g>
</g>
<g>
	<g>
		<path d="M456.9,361.261H301.094v-93.971c0-18.924-15.395-34.317-34.317-34.317h-23.605c-18.923,0-34.317,15.395-34.317,34.317
			v93.971H55.1c-30.382,0-55.1,24.717-55.1,55.1v32.072c0,5.632,4.566,10.199,10.199,10.199c5.633,0,10.199-4.567,10.199-10.199
			v-32.072c0-19.135,15.567-34.701,34.702-34.701h153.753v63.758h-35.472c-15.527,0-28.159,12.633-28.159,28.16
			c0,15.527,12.633,28.159,28.159,28.159h163.183c15.528,0,28.16-12.633,28.16-28.159c0-15.528-12.633-28.16-28.16-28.16h-35.471
			V381.66H456.9c19.135,0,34.702,15.567,34.702,34.701v32.072c0,5.632,4.567,10.199,10.199,10.199
			c5.632,0,10.199-4.567,10.199-10.199v-32.072C512,385.978,487.282,361.261,456.9,361.261z M229.252,267.289
			c0-7.675,6.244-13.919,13.919-13.919h23.605c7.675,0,13.919,6.244,13.919,13.919v93.971h-51.443V267.289z M280.695,381.659v63.758
			h-51.443v-63.758H280.695z M336.565,465.816c4.28,0,7.762,3.482,7.762,7.762c0,4.279-3.482,7.761-7.762,7.761H173.382
			c-4.28,0-7.761-3.482-7.761-7.761c0-4.28,3.482-7.762,7.761-7.762H336.565z"/>
	</g>
</g>
<g>
</g>
<g>
</g>
<g>
</g>
<g>
</g>
<g>
</g>
<g>
</g>
<g>
</g>
<g>
</g>
<g>
</g>
<g>
</g>
<g>
</g>
<g>
</g>
<g>
</g>
<g>
</g>
<g>
</g>
</svg>
