<svg id="Capa_1" enable-background="new 0 0 512 512" height="512" viewBox="0 0 512 512" width="512" xmlns="http://www.w3.org/2000/svg"><g><path d="m60 40.005v160.99l60 40.005 60-40.005v-160.99l-60-40.005z"/><path d="m332 40.005v160.99l60 40.005 60-40.005v-160.99l-60-40.005z"/><path d="m60 311.005v160.99l60 40.005 60-40.005v-160.99l-60-40.005z"/><path d="m332 311.005v160.99l60 40.005 60-40.005v-160.99l-60-40.005z"/><path d="m210 91h92v60h-92z"/><path d="m0 91h30v60h-30z"/><path d="m482 91h30v60h-30z"/><path d="m210 361h92v60h-92z"/><path d="m0 361h30v60h-30z"/><path d="m482 361h30v60h-30z"/></g></svg>