<svg id="Capa_1" enable-background="new 0 0 512 512" height="512" viewBox="0 0 512 512" width="512" xmlns="http://www.w3.org/2000/svg"><g><g><g><path d="m507.61 156.38c-49.22-49.22-95.1-92.83-215.44-94.35-43.26-41.72-87.72-62.02-135.75-62.02h-.45c-60.83.16-113.47 31.98-140.97 31.98-8.28 0-15 6.72-15 15v255h93.57c48.311 0 87.43-39.09 87.43-87.43v-17.57c0-8.28 6.72-15 15-15s15 6.72 15 15v17.57c0 64.916-52.514 117.43-117.43 117.43h-93.57v60h76c8.28 0 15 6.72 15 15s-6.72 15-15 15h-76v75c0 8.28 6.72 15 15 15h151c8.28 0 15-6.72 15-15 0-32.51 12.91-50.77 30.78-76.04 24.39-34.5 54.3-76.79 58.68-170.06 70.56 34.47 117.79 51.1 226.54 51.1 8.28 0 15-6.72 15-15v-120c0-3.98-1.58-7.79-4.39-10.61z"/></g></g></g></svg>