<?xml version="1.0" encoding="iso-8859-1"?>
<!-- Generator: Adobe Illustrator 16.0.0, SVG Export Plug-In . SVG Version: 6.00 Build 0)  -->
<!DOCTYPE svg PUBLIC "-//W3C//DTD SVG 1.1//EN" "http://www.w3.org/Graphics/SVG/1.1/DTD/svg11.dtd">
<svg version="1.1" id="Capa_1" xmlns="http://www.w3.org/2000/svg" xmlns:xlink="http://www.w3.org/1999/xlink" x="0px" y="0px"
	 width="197.392px" height="197.392px" viewBox="0 0 197.392 197.392" style="enable-background:new 0 0 197.392 197.392;"
	 xml:space="preserve">
<g>
	<g>
		<ellipse cx="98.762" cy="16.501" rx="16.721" ry="16.501"/>
		<path d="M184.875,35.393L12.519,35.441c-3.292,0-5.963,2.643-5.963,5.935s2.671,5.934,5.963,5.934l66.086-0.015v61l-25.179,26.25
			c-2.843,2.964-4.431,6.912-4.431,11.021v42.883c0,4.938,3.995,8.942,8.934,8.942c4.939,0,8.935-4.003,8.935-8.942v-39.125
			c0-1.879,0.729-3.687,2.031-5.041L91.48,120.82h9.46v28.238c0,8.793,7.128,15.922,15.921,15.922h38.646
			c4.938,0,8.942-4.06,8.942-8.998s-4.004-8.998-8.942-8.998h-33.573c-1.728,0-3.128-1.4-3.128-3.127V47.31l66.066,0.003
			c3.293,0,5.963-2.668,5.963-5.96C190.835,38.06,188.166,35.393,184.875,35.393z"/>
	</g>
</g>
<g>
</g>
<g>
</g>
<g>
</g>
<g>
</g>
<g>
</g>
<g>
</g>
<g>
</g>
<g>
</g>
<g>
</g>
<g>
</g>
<g>
</g>
<g>
</g>
<g>
</g>
<g>
</g>
<g>
</g>
</svg>
