<?xml version="1.0" encoding="iso-8859-1"?>
<!-- Generator: Adobe Illustrator 17.1.0, SVG Export Plug-In . SVG Version: 6.00 Build 0)  -->
<!DOCTYPE svg PUBLIC "-//W3C//DTD SVG 1.1//EN" "http://www.w3.org/Graphics/SVG/1.1/DTD/svg11.dtd">
<svg version="1.1" id="Capa_1" xmlns="http://www.w3.org/2000/svg" xmlns:xlink="http://www.w3.org/1999/xlink" x="0px" y="0px"
	 viewBox="0 0 96.274 96.274" style="enable-background:new 0 0 96.274 96.274;" xml:space="preserve">
<g>
	<path d="M71.73,38.02l-16.096-0.059c-1.029-0.004-2.749-0.186-3.755-0.397l-14.764-3.104c-0.018-0.004-0.035-0.002-0.053-0.006
		c-1.306-0.249-3.289-0.506-4.64-0.595l-8.179-0.532c-1.324-0.087-3.476-0.576-4.701-1.067l-15.15-6.076
		c-0.408-0.164-0.823-0.247-1.234-0.247c-1.491,0-2.673,1.094-2.874,2.658l-0.252,1.961c-0.239,1.856,0.912,3.916,2.619,4.687
		l14,6.318c1.414,0.639,3.731,1.254,5.276,1.399l12.025,1.141v15.695c0,0.883-0.718,1.601-1.6,1.602l-9.411,0.007
		c-1.985,0.001-3.6,1.617-3.6,3.603v0.956c0,1.947,1.583,3.531,3.528,3.531l16.73-0.444c1.97-0.055,3.571-1.701,3.568-3.671
		l-0.019-17.175l7.388,1.594c1.133,0.245,2.999,0.451,4.158,0.461l11.783,0.095v18.869c0,1.654,1.346,3,3,3h2.25
		c1.654,0,3-1.346,3-3V47.412V46.22v-5.192C74.727,39.375,73.382,38.026,71.73,38.02z M22.869,68.489
		C22.869,68.489,22.869,68.489,22.869,68.489v0.006V68.489z"/>
	<path d="M86.105,24.051c-5.607,0-10.169,4.562-10.169,10.169s4.562,10.169,10.169,10.169c5.607,0,10.169-4.562,10.169-10.169
		S91.712,24.051,86.105,24.051z"/>
</g>
<g>
</g>
<g>
</g>
<g>
</g>
<g>
</g>
<g>
</g>
<g>
</g>
<g>
</g>
<g>
</g>
<g>
</g>
<g>
</g>
<g>
</g>
<g>
</g>
<g>
</g>
<g>
</g>
<g>
</g>
</svg>
