<svg id="Capa_1" enable-background="new 0 0 511.598 511.598" height="512" viewBox="0 0 511.598 511.598" width="512" xmlns="http://www.w3.org/2000/svg"><g><path d="m421.761 251.155c30.329-26.242 49.549-64.996 49.549-108.155 0-78.851-64.149-143-143-143s-143 64.149-143 143c0 70.984 51.992 130.044 119.892 141.124-1.204 12.252-2.634 24.309-4.302 36.074-22.276-11.921-48.604-14.895-73.24-7.818-43.33-39.9-110.718-39.128-153.92 2.979-44.596 43.467-44.61 113.204 0 156.684 36.197 35.28 89.719 41.706 131.678 18.903 11.764 6.406 27.335 10.895 40.587 13.178 24.564 4.152 58.922 7.475 89.375 7.475 40.494-.001 72.299-5.56 94.709-16.578 15.6-7.671 25.427-23.86 25.037-41.237-1.879-85.913-18.492-156.186-33.365-202.629zm-206.451-108.155c0-62.309 50.691-113 113-113s113 50.691 113 113-50.691 113-113 113-113-50.691-113-113zm201.542 325.099c-40.522 19.923-121.86 13.924-166.11 6.399-9.542-1.578-27.652-6.479-35.628-12.907-5.104-4.114-12.288-4.438-17.741-.797-13.236 8.836-28.68 13.506-44.662 13.506-44.666 0-82.4-36.91-82.4-80.6s37.734-80.601 82.4-80.601c16.764 0 33.004 5.276 46.502 14.805-3.974 3.257-8.13 7.169-11.925 11.714-5.31 6.359-4.459 15.818 1.899 21.128s15.82 4.458 21.128-1.899c7.202-8.625 17.146-14.274 19.5-15.542 22.142-8.736 47.18-5.117 65.898 9.099-1.962 10.405-5.496 25.879-9.9 34.921-3.627 7.448-.529 16.427 6.919 20.054 7.431 3.617 16.418.546 20.053-6.919 8.637-17.737 13.226-46.671 13.932-51.381 3.518-20.213 6.347-41.437 8.46-63.247 21.879-1.04 42.485-7.019 60.727-16.845 13.474 44.311 27.543 108.259 29.231 185.46.127 5.755-3.124 11.115-8.283 13.652z"/><path d="m415.31 144c0-47.972-39.028-87-87-87s-87 39.028-87 87 39.028 87 87 87 87-39.028 87-87zm-144 0c0-31.43 25.57-57 57-57s57 25.57 57 57-25.57 57-57 57-57-25.57-57-57z"/><path d="m343.31 144c0-8.6-7.368-15.766-16.48-14.931-12.674 1.341-18.003 16.656-9.13 25.53 9.493 9.507 25.61 2.617 25.61-10.599z"/></g></svg>