<?xml version="1.0" encoding="iso-8859-1"?>
<!-- Generator: Adobe Illustrator 18.0.0, SVG Export Plug-In . SVG Version: 6.00 Build 0)  -->
<!DOCTYPE svg PUBLIC "-//W3C//DTD SVG 1.1//EN" "http://www.w3.org/Graphics/SVG/1.1/DTD/svg11.dtd">
<svg version="1.1" id="Capa_1" xmlns="http://www.w3.org/2000/svg" xmlns:xlink="http://www.w3.org/1999/xlink" x="0px" y="0px"
	 viewBox="0 0 419.37 419.37" style="enable-background:new 0 0 419.37 419.37;" xml:space="preserve">
<path d="M362.802,101.88c-0.233-1.367-1.374-2.396-2.758-2.488l-74.326-4.955c-1.739-0.199-32.514-3.68-56.541-3.68
	c-8.284,0-14.967,0.414-19.862,1.23c-3.016,0.503-5.942,1.028-8.842,1.548c-12.082,2.168-23.495,4.217-39.097,4.217
	c-8.053,0-16.607-0.545-26.061-1.662l2.977-13.779c1.377,0.349,2.79,0.524,4.229,0.524c8.28,0,15.588-5.925,17.375-14.089
	c2.368-10.818,3.395-27.11-5.159-43.288C149.709,15.951,138.539,0,120.221,0c-5.722,0-10.134,1.594-12.829,2.932
	c-11.594,5.754-27.26,24.242-19.939,49.354c2.598,8.913,5.744,16.582,9.352,22.796c3.409,5.873,4.299,12.923,2.481,19.463
	c-3.62,3.469-19.984,20.818-16.45,47.907c0.39,2.993,0.807,5.971,1.219,8.923c3.52,25.184,6.56,46.934-7.743,60.425
	c-19.186,18.097-24.649,39.971-15.383,61.59c6.571,15.333,28.098,21.956,34.735,23.666c1.077,0.277,2.051,0.484,2.114,0.493
	l60.905,8.859c-8.913,8.647-14.479,24.503-20.747,42.355c-5.327,15.174-11.365,32.373-20.256,46.516
	c-0.106,0.17-0.196,0.35-0.267,0.538c-1.225,3.245-0.938,7.189,0.747,10.293c1.513,2.788,3.991,4.683,6.977,5.336
	c13.527,2.959,38.546,7.923,54.126,7.922c5.403,0,9.311-0.582,11.945-1.78c3.641-1.655,4.089-4.189,4.032-5.552
	c-0.137-3.287-2.888-7.823-22.243-16.54c-6.387-2.876-12.812-5.396-16.714-6.874c1.659-2.285,3.764-5.196,6.179-8.557l18.719,1.037
	c0.177,0.01,0.353,0.015,0.528,0.015c3.462,0,6.509-1.904,8.035-5.062c1.603-3.317,1.08-7.09-1.366-9.846l-8.855-9.979
	c-0.037-0.042-0.082-0.072-0.121-0.111c16.191-23.275,33.759-49.852,34.51-56.611l0.117-1.044
	c1.29-11.456,3.449-30.63-13.961-40.005c-13.795-7.428-54.274-21.652-67.194-26.123c8.474-11.591,34.138-50.921,28.287-95.029
	c24.484-2.567,41.009-9.384,44.352-10.855c9.886-0.174,71.524-1.525,87.269-8.271c2.898,1.44,6.641,2.144,11.37,2.144
	c21.199,0,55.425-14.564,56.871-15.184C362.302,104.596,363.035,103.247,362.802,101.88z M183.893,370.193
	c1.215,1.37,0.652,2.835,0.451,3.252c-0.202,0.416-0.995,1.77-2.829,1.667l-14.914-0.827c2.875-4.03,6.021-8.47,9.28-13.12
	L183.893,370.193z M208.07,297.794l-0.118,1.053c-0.839,7.552-36.54,58.871-58.846,89.444c-0.558,0.764-0.722,1.747-0.444,2.651
	c0.278,0.904,0.967,1.624,1.858,1.942c19.207,6.859,36.327,15.37,38.542,19.075c-0.09,0.05-0.201,0.107-0.335,0.168
	c-1.247,0.566-3.9,1.242-9.463,1.242c-15.017,0.001-39.554-4.876-52.844-7.784c-1.61-0.353-2.513-1.465-2.986-2.337
	c-0.82-1.511-1.006-3.468-0.494-5.061c9.15-14.654,15.262-32.064,20.658-47.435c7.208-20.533,13.434-38.266,24.141-43.562
	c1.177-0.582,1.839-1.862,1.633-3.159c-0.206-1.297-1.231-2.31-2.531-2.499l-68.094-9.904c-0.241-0.054-0.999-0.229-2.12-0.531
	c14.143-7.705,42.347-25.675,47.145-48.567c17.363,6.184,43.335,15.764,53.454,21.213
	C211.064,271.195,209.334,286.569,208.07,297.794z M138.056,240.506c-4.34,24.212-41.063,43.815-49.398,47.978
	c-8.014-3.097-18.439-8.649-22.214-17.456c-7.027-16.397-4.668-32.478,6.761-47.008c27.189,4.306,52.601,12.264,53.792,12.64
	c0.002,0.001,0.004,0.002,0.006,0.003C127.154,236.714,131.515,238.204,138.056,240.506z M304.155,114.327
	c-4.345,0-7.576-0.686-9.604-2.038c-0.965-0.643-2.213-0.672-3.207-0.077c-8.591,5.154-56.463,7.759-86.545,8.253
	c-0.42,0.007-0.836,0.103-1.217,0.28c-0.179,0.083-17.994,8.25-44.918,10.783c-0.396,0.037-2.08,0.27-3,0.383
	c-3.503,0.427-13.341,1.04-28.206-2.676c-1.606-0.401-3.237,0.575-3.638,2.183c-0.402,1.607,0.576,3.236,2.183,3.638
	c10.177,2.544,18.167,3.192,23.666,3.192c2.281,0,4.127-0.112,5.529-0.246c5.815,43.784-22.092,83.991-28.333,92.34
	c-6.331-1.915-26.727-7.83-48.996-11.637c0.824-0.852,1.673-1.7,2.563-2.539c16.557-15.617,13.162-39.906,9.568-65.62
	c-0.41-2.934-0.824-5.894-1.212-8.869c-3.457-26.504,14.939-43.073,15.121-43.233c0.417-0.364,0.724-0.837,0.889-1.365
	c2.601-8.347,1.58-17.462-2.801-25.008c-3.364-5.794-6.318-13.016-8.78-21.463c-6.531-22.403,8.529-38.173,16.846-42.301
	C113.056,6.819,116.664,6,120.221,6c7.956,0,19.481,3.862,29.212,22.264c7.705,14.573,6.755,29.36,4.602,39.2
	c-1.189,5.431-6.031,9.372-11.514,9.372c-1.767,0-3.48-0.408-5.092-1.214c-0.829-0.415-1.802-0.422-2.639-0.021
	c-0.836,0.401-1.439,1.165-1.634,2.072l-4.398,20.36c-0.177,0.821-0.003,1.678,0.482,2.364c0.484,0.686,1.234,1.137,2.067,1.245
	c11.012,1.42,20.848,2.111,30.07,2.111c16.136,0,27.804-2.094,40.157-4.312c2.876-0.516,5.777-1.037,8.768-1.536
	c4.57-0.762,10.92-1.148,18.875-1.148c24.258,0,55.609,3.612,55.923,3.649c0.049,0.005,0.098,0.01,0.148,0.013l60.907,4.06
	C334.293,108.761,316.502,114.327,304.155,114.327z"/>
<g>
</g>
<g>
</g>
<g>
</g>
<g>
</g>
<g>
</g>
<g>
</g>
<g>
</g>
<g>
</g>
<g>
</g>
<g>
</g>
<g>
</g>
<g>
</g>
<g>
</g>
<g>
</g>
<g>
</g>
</svg>
