<svg id="Layer_1" height="512" viewBox="0 0 512 512" width="512" xmlns="http://www.w3.org/2000/svg" data-name="Layer 1"><path d="m160 372h193v12h-193z"/><path d="m325.806 341h-138.593c-11.882 0-21.549 9-21.561 21h181.716c-.013-12-9.68-21-21.562-21z"/><path d="m177 394h13v82h-13z"/><path d="m323 394h13v82h-13z"/><path d="m88 234.14v-139.819a9.005 9.005 0 1 0 -18 0v139.819a9.005 9.005 0 1 0 18 0z"/><path d="m123.825 177.3a14.413 14.413 0 0 1 -6.377 1.7h-2.448v297h18v-303.485z"/><path d="m397 36h-18v104.299l18 9.166z"/><path d="m22 164.5a4.491 4.491 0 0 0 4.406 4.5h4.594v-9h-4.594a4.491 4.491 0 0 0 -4.406 4.5z"/><path d="m133 36h-18v113.465l18-9.166z"/><path d="m50.5 91.8a9.485 9.485 0 0 0 -9.5 9.315v126.228a9.5 9.5 0 0 0 19 0v-126.226a9.485 9.485 0 0 0 -9.5-9.317z"/><path d="m432 85.005a9.062 9.062 0 0 0 -9 9.316v139.819a9.005 9.005 0 1 0 18 0v-139.819a9.062 9.062 0 0 0 -9-9.316z"/><path d="m460.5 91.8a9.485 9.485 0 0 0 -9.5 9.315v126.228a9.5 9.5 0 0 0 19 0v-126.226a9.485 9.485 0 0 0 -9.5-9.317z"/><path d="m119.444 168.351 35.075-17.65a7.083 7.083 0 0 1 7.816.986l40.457 35.046a8.726 8.726 0 0 0 9.134 1.4l42.087-18.228a4.992 4.992 0 0 1 3.974 0l42.088 18.232a8.584 8.584 0 0 0 3.428.711 8.683 8.683 0 0 0 5.7-2.093l40.458-35.024a7.085 7.085 0 0 1 7.82-.942l35.073 17.56a4.732 4.732 0 0 0 2 .649h18.446v-9h-16.217a5.1 5.1 0 0 1 -2.229-.615l-33.081-16.568a16 16 0 0 0 -17.66 2.227l-37.957 32.88a5 5 0 0 1 -5.261.81l-42.815-18.543a4.49 4.49 0 0 0 -3.558 0l-42.817 18.549a5 5 0 0 1 -5.261-.8l-37.956-32.867a16 16 0 0 0 -17.66-2.206l-33.082 16.523a5.1 5.1 0 0 1 -2.229.615h-17.217v9h19.448a4.732 4.732 0 0 0 1.996-.652z"/><path d="m394.552 179a14.413 14.413 0 0 1 -6.377-1.7l-9.175-4.785v303.485h18v-297z"/><path d="m485.594 160h-5.594v9h5.594a4.5 4.5 0 0 0 0-9z"/><path d="m95 411.2v-105.663a5 5 0 0 0 -10 0v105.663a5 5 0 0 0 10 0z"/><path d="m85 279.689v5.357a5 5 0 0 0 10 0v-5.357a5 5 0 0 0 -10 0z"/></svg>