<?xml version="1.0" encoding="iso-8859-1"?>
<!-- Generator: Adobe Illustrator 19.0.0, SVG Export Plug-In . SVG Version: 6.00 Build 0)  -->
<svg version="1.1" id="Capa_1" xmlns="http://www.w3.org/2000/svg" xmlns:xlink="http://www.w3.org/1999/xlink" x="0px" y="0px"
	 viewBox="0 0 512 512" style="enable-background:new 0 0 512 512;" xml:space="preserve">
<g>
	<g>
		<path d="M494.092,201.911l-29.538-51.162c-1.958-3.392-5.184-5.867-8.968-6.881c-3.784-1.015-7.816-0.483-11.207,1.476
			l-51.04,29.468V14.769C393.34,6.613,386.727,0,378.57,0h-59.077c-8.157,0-14.769,6.613-14.769,14.769v31.263
			c-4.726-1.117-9.646-1.725-14.709-1.725c-35.29,0-64,28.71-64,64s28.71,64,64,64c5.063,0,9.983-0.608,14.709-1.725v55.392
			l-120.23,69.415l-35.121-20.277c-45.958-26.533-104.932-10.729-131.466,35.227c-1.958,3.392-2.489,7.424-1.476,11.207
			c1.013,3.784,3.489,7.009,6.882,8.968l115.095,66.45l-85.563,90.097c-5.617,5.915-5.375,15.263,0.54,20.88
			c2.857,2.714,6.515,4.06,10.167,4.06c3.908,0,7.809-1.541,10.712-4.599l92.678-97.59l159.968,35.974l17.903,55.947
			c1.957,6.116,7.645,10.268,14.067,10.268h59.077c4.716,0,9.149-2.253,11.93-6.061c2.781-3.809,3.574-8.718,2.138-13.21
			L393.34,371.847v-94.712l95.347-55.049c3.392-1.958,5.867-5.184,6.881-8.968C496.583,209.335,496.052,205.304,494.092,201.911z
			 M304.715,109.765c-0.049,0.473-0.128,0.955-0.217,1.428c-0.099,0.473-0.217,0.945-0.354,1.408
			c-0.148,0.453-0.305,0.916-0.492,1.359c-0.187,0.443-0.394,0.876-0.62,1.3c-0.217,0.433-0.473,0.847-0.738,1.25
			c-0.266,0.394-0.551,0.788-0.857,1.162c-0.305,0.374-0.64,0.738-0.975,1.083c-0.345,0.335-0.709,0.67-1.083,0.975
			c-0.374,0.305-0.758,0.591-1.162,0.857c-0.404,0.266-0.817,0.512-1.25,0.738c-0.423,0.227-0.857,0.433-1.3,0.62
			c-0.443,0.187-0.906,0.345-1.359,0.492c-0.463,0.138-0.935,0.256-1.408,0.354c-0.473,0.089-0.955,0.167-1.428,0.217
			c-0.482,0.049-0.975,0.069-1.457,0.069c-0.482,0-0.975-0.02-1.457-0.069c-0.473-0.049-0.955-0.128-1.428-0.217
			c-0.473-0.098-0.945-0.217-1.408-0.354c-0.453-0.148-0.916-0.305-1.359-0.492c-0.443-0.187-0.876-0.394-1.3-0.62
			c-0.433-0.226-0.847-0.473-1.25-0.738c-0.394-0.266-0.788-0.551-1.162-0.857s-0.738-0.64-1.083-0.975
			c-0.335-0.345-0.67-0.709-0.975-1.083c-0.305-0.374-0.591-0.768-0.857-1.162c-0.266-0.404-0.512-0.817-0.738-1.25
			c-0.227-0.423-0.433-0.857-0.62-1.3c-0.187-0.443-0.345-0.906-0.492-1.359c-0.138-0.463-0.256-0.935-0.354-1.408
			c-0.089-0.473-0.167-0.955-0.217-1.428c-0.039-0.482-0.069-0.975-0.069-1.457c0-0.482,0.03-0.965,0.069-1.447
			c0.049-0.482,0.128-0.965,0.217-1.438c0.099-0.473,0.217-0.945,0.354-1.398c0.148-0.463,0.305-0.926,0.492-1.369
			c0.187-0.443,0.394-0.876,0.62-1.3c0.226-0.433,0.473-0.847,0.738-1.25c0.266-0.394,0.551-0.788,0.857-1.162
			c0.305-0.374,0.64-0.738,0.975-1.083c0.345-0.335,0.709-0.669,1.083-0.975s0.768-0.591,1.162-0.857
			c0.404-0.266,0.817-0.512,1.25-0.738c0.423-0.226,0.857-0.433,1.3-0.62c0.443-0.187,0.906-0.345,1.359-0.492
			c0.463-0.138,0.935-0.256,1.408-0.354c0.473-0.089,0.955-0.167,1.428-0.217c0.965-0.089,1.95-0.089,2.914,0
			c0.473,0.049,0.955,0.128,1.428,0.217c0.473,0.098,0.945,0.217,1.408,0.354c0.453,0.148,0.916,0.305,1.359,0.492
			c0.443,0.187,0.876,0.394,1.3,0.62c0.433,0.227,0.847,0.473,1.25,0.738s0.788,0.551,1.162,0.857
			c0.374,0.305,0.738,0.64,1.083,0.975c0.335,0.345,0.669,0.709,0.975,1.083c0.305,0.374,0.591,0.768,0.857,1.162
			c0.266,0.404,0.522,0.817,0.738,1.25c0.226,0.423,0.433,0.857,0.62,1.3s0.345,0.906,0.492,1.369
			c0.138,0.453,0.256,0.926,0.354,1.398c0.089,0.473,0.167,0.955,0.217,1.438c0.049,0.482,0.069,0.965,0.069,1.447
			C304.784,108.79,304.765,109.282,304.715,109.765z M202.233,387.471l102.492-59.173v45.857c0,1.528,0.237,3.046,0.702,4.502
			l11.041,34.506L202.233,387.471z"/>
	</g>
</g>
<g>
</g>
<g>
</g>
<g>
</g>
<g>
</g>
<g>
</g>
<g>
</g>
<g>
</g>
<g>
</g>
<g>
</g>
<g>
</g>
<g>
</g>
<g>
</g>
<g>
</g>
<g>
</g>
<g>
</g>
</svg>
