<?xml version="1.0" encoding="iso-8859-1"?>
<!-- Generator: Adobe Illustrator 19.0.0, SVG Export Plug-In . SVG Version: 6.00 Build 0)  -->
<svg version="1.1" id="Layer_1" xmlns="http://www.w3.org/2000/svg" xmlns:xlink="http://www.w3.org/1999/xlink" x="0px" y="0px"
	 viewBox="0 0 511.994 511.994" style="enable-background:new 0 0 511.994 511.994;" xml:space="preserve">
<g>
	<g>
		<path d="M95.999,85.327c-23.531,0-42.672,19.14-42.672,42.671c0,23.516,19.141,42.656,42.672,42.656s42.672-19.14,42.672-42.656
			C138.671,104.467,119.53,85.327,95.999,85.327z M95.999,149.326c-11.766,0-21.328-9.562-21.328-21.328s9.562-21.344,21.328-21.344
			s21.328,9.578,21.328,21.344S107.765,149.326,95.999,149.326z"/>
	</g>
</g>
<g>
	<g>
		<path d="M103.546,120.451c-4.172-4.172-10.922-4.172-15.094,0c-4.156,4.172-4.156,10.922,0,15.078
			c4.172,4.172,10.922,4.172,15.094,0C107.702,131.373,107.702,124.623,103.546,120.451z"/>
	</g>
</g>
<g>
	<g>
		<path d="M511.994,351.995c0-23.529-19.141-42.67-42.671-42.67H213.326v-91.562c31.249-12.688,53.343-43.358,53.343-79.108
			c0-47.046-38.28-85.327-85.343-85.327c-7.516,0-14.797,0.984-21.734,2.812c-16.952-15.016-39.218-24.141-63.593-24.141
			C43.062,31.999,0,75.061,0,127.998c0,41.719,26.75,77.296,63.999,90.499v90.828H10.672c-2.828,0-5.547,1.125-7.547,3.125
			S0,317.169,0,319.997v31.998c0,23.516,19.141,42.656,42.672,42.656h21.327v64c-5.891,0-10.672,4.781-10.672,10.672
			s4.781,10.672,10.672,10.672h10.672h42.656h10.672c5.891,0,10.672-4.781,10.672-10.672s-4.781-10.672-10.672-10.672v-64h21.327
			v42.672c-5.89,0-10.655,4.766-10.655,10.672c0,5.875,4.766,10.656,10.655,10.656h10.672h42.672h10.656
			c5.891,0,10.672-4.781,10.672-10.656c0-5.906-4.781-10.672-10.672-10.672v-42.672h7.109h156.967l32.844,65.688
			c-2.953,1.906-4.922,5.203-4.922,8.984c0,5.891,4.781,10.672,10.672,10.672h10.672h42.655h10.672
			c5.89,0,10.671-4.781,10.671-10.672s-4.781-10.672-10.671-10.672h-4.078l-32-64h25.406
			C492.853,394.651,511.994,375.511,511.994,351.995z M63.999,373.323H42.672c-11.766,0-21.344-9.562-21.344-21.328v-21.342
			c0,5.891,4.781,10.67,10.672,10.67s10.672-4.779,10.672-10.67h21.327V373.323z M181.326,74.654
			c35.297,0.001,63.999,28.719,63.999,64c0,23.641-12.874,44.328-31.999,55.405v-27.218c6.641-7.531,10.672-17.391,10.672-28.188
			c0-21.719-16.344-39.703-37.375-42.312c-2.672-7.641-6.281-14.828-10.688-21.453C177.716,74.747,179.513,74.654,181.326,74.654z
			 M186.748,159.295c3.406-9.812,5.25-20.344,5.25-31.297c0-2.688-0.125-5.359-0.328-8c6.547,3.656,11,10.641,11,18.656
			C202.67,148.545,195.904,156.889,186.748,159.295z M191.998,179.983v129.343H170.67v-0.001V188.264
			c1.891-2.344,3.672-4.766,5.344-7.281c1.734,0.219,3.516,0.344,5.312,0.344C185.014,181.327,188.592,180.858,191.998,179.983z
			 M106.671,458.651H85.327V223.403c3.516,0.375,7.062,0.594,10.672,0.594s7.156-0.219,10.672-0.594V458.651z M95.999,202.653
			c-41.172,0-74.671-33.483-74.671-74.655c0-41.171,33.499-74.671,74.671-74.671s74.671,33.5,74.671,74.671
			C170.67,169.17,137.171,202.653,95.999,202.653z M127.999,218.497c4.141-1.469,8.156-3.203,12.016-5.203
			c3,1.672,6.108,3.156,9.312,4.469v91.562H128L127.999,218.497L127.999,218.497z M191.998,437.323H170.67v-42.672h21.328V437.323z
			 M452.073,458.651h-18.812l-32-64h18.812L452.073,458.651z M426.668,373.323h-42.672H220.435H202.67h-42.672h-31.999v-42.67
			h21.327c0,5.891,4.781,10.67,10.672,10.67s10.672-4.779,10.672-10.67h21.328c0,5.891,4.781,10.67,10.672,10.67
			s10.656-4.779,10.656-10.67h21.344c0,5.891,4.766,10.67,10.655,10.67c5.891,0,10.672-4.779,10.672-10.67h21.328
			c0,5.891,4.781,10.67,10.672,10.67c5.89,0,10.671-4.779,10.671-10.67h21.328c0,5.891,4.781,10.67,10.672,10.67
			s10.656-4.779,10.656-10.67h21.344c0,5.891,4.766,10.67,10.656,10.67s10.672-4.779,10.672-10.67h21.328
			c0,5.891,4.781,10.67,10.672,10.67s10.672-4.779,10.672-10.67h21.327c0,5.891,4.781,10.67,10.672,10.67s10.656-4.779,10.656-10.67
			c11.766,0,21.343,9.576,21.343,21.342c0,11.766-9.577,21.328-21.343,21.328H426.668z"/>
	</g>
</g>
<g>
</g>
<g>
</g>
<g>
</g>
<g>
</g>
<g>
</g>
<g>
</g>
<g>
</g>
<g>
</g>
<g>
</g>
<g>
</g>
<g>
</g>
<g>
</g>
<g>
</g>
<g>
</g>
<g>
</g>
</svg>
