<?xml version="1.0" encoding="iso-8859-1"?>
<!-- Generator: Adobe Illustrator 18.0.0, SVG Export Plug-In . SVG Version: 6.00 Build 0)  -->
<!DOCTYPE svg PUBLIC "-//W3C//DTD SVG 1.1//EN" "http://www.w3.org/Graphics/SVG/1.1/DTD/svg11.dtd">
<svg version="1.1" id="Capa_1" xmlns="http://www.w3.org/2000/svg" xmlns:xlink="http://www.w3.org/1999/xlink" x="0px" y="0px"
	 viewBox="0 0 347.697 347.697" style="enable-background:new 0 0 347.697 347.697;" xml:space="preserve">
<path d="M298.341,2.953c-26.724-12.277-60.079,16.54-77.584,34.809c-1.82,1.898-3.161,4.141-3.958,6.577l-3.057,0.271
	c-4.096-9.014-19.478-40.617-34.736-42.883c-25.046-3.714-45.512,0.264-48.691,0.939c-4.963-0.183-49.257-1.553-67.632,7.148
	c-0.132,0.063-0.259,0.134-0.38,0.215c-4.855,3.237-5.886,10.032-3.063,20.195c1.697,6.108,4.255,11.534,4.857,12.772
	c0.679,2.317,5.497,18.083,16.374,37.732C49.087,105.366,14.63,140.162,18.863,192.02c0.683,8.366,4.57,15.32,11.552,20.668
	c13.407,10.269,36.607,13.19,58.687,13.19c25.695,0,49.856-3.958,55.269-4.906c1.301,2.231,2.625,4.33,3.961,6.319
	c-2.06,7.375-8.712,31.2-12.811,45.96c-2.349,8.455-12.741,26.82-29.262,51.71c-2.532,3.814-2.806,8.528-0.733,12.609
	c2.075,4.085,6.047,6.647,10.626,6.853l72.512,3.266c0.127,0.005,0.252,0.008,0.378,0.008c3.511,0,6.52-2.215,7.556-5.609
	c0.088-0.287,0.153-0.574,0.208-0.862l4.817-1.467c2.939-0.895,4.976-3.347,5.316-6.399c0.341-3.053-1.105-5.894-3.774-7.415
	l-45.141-25.718c7.568-11.198,17.645-25.354,25.624-33.867c49.207-50.055,47.649-72.327,45.408-78.829
	c4.549-6.799,9.132-13.441,12.505-17.293c13.456-15.375,2.343-61.082,0.028-69.917c1.31-1.694,4.279-5.21,8.91-8.903
	c13.271,5.603,33.761,9.264,58.658-2.728c12.506-6.017,20.181-20.292,20.028-37.256C329.037,34.777,320.855,13.294,298.341,2.953z
	 M83.5,85.978c8.729,14.785,18.787,27.808,29.966,38.702c2.633,2.566,5.778,4.109,9.175,4.623c-1.69,2.919-2.498,6.352-2.174,9.869
	c0.214,2.319,0.47,4.623,0.744,6.908c-1.139,0.012-4.236,0.076-4.236,0.076c-6.208,0.169-12.346-1.632-17.738-5.205
	c-22.92-15.183-43.669-17.389-53.726-17.401C56.418,108.814,70.213,96.459,83.5,85.978z M24.844,191.532
	c-1.974-24.177,5.088-44.542,16.373-61.82c2.351-0.181,7.963-0.391,15.583,0.771c9.343,1.424,23.715,5.264,39.123,15.471
	c5.434,3.6,11.517,5.683,17.77,6.12c-8.01,19.107-43.735,58.048-51.167,66.032c-11.351-1.705-21.497-4.846-28.463-10.182
	C28.406,203.591,25.39,198.229,24.844,191.532z M69.866,219.004c4.782-5.211,12.903-14.226,21.209-24.189
	c16.156-19.382,25.884-33.719,29.008-42.716c0.642-0.009,1.279-0.018,1.917-0.023c3.693,25.762,10.873,47.162,19.297,63.321
	C131.299,217.008,98.276,221.732,69.866,219.004z M200.194,331.158c0.81,0.461,0.816,1.228,0.782,1.536
	c-0.034,0.308-0.211,1.054-1.102,1.325l-4.28,1.303c-0.622-0.907-1.445-1.699-2.45-2.312c-0.1-0.061-0.201-0.115-0.306-0.163
	l-39.14-18.051c-1.038-0.478-1.783-1.347-2.099-2.445c-0.315-1.096-0.146-2.224,0.477-3.177c0.791-1.211,1.67-2.546,2.6-3.948
	L200.194,331.158z M179.32,262.206c-10.702,11.415-24.809,32.271-32.265,43.686c-1.569,2.401-2.014,5.359-1.221,8.116
	c0.794,2.76,2.745,5.033,5.353,6.236l38.952,17.964c1.019,0.7,0.847,1.713,0.72,2.127c-0.131,0.428-0.541,1.426-1.925,1.359
	l-72.512-3.266c-2.39-0.107-4.463-1.444-5.546-3.576c-1.08-2.128-0.938-4.585,0.382-6.574
	c11.928-17.971,26.823-41.827,30.044-53.423c3.458-12.448,8.73-31.342,11.532-41.379c4.339,5.47,8.735,9.666,12.94,12.477
	c3.885,2.597,7.565,3.926,10.809,3.926c0.958,0,1.878-0.116,2.754-0.349c9.953-2.652,24.134-23.214,43.081-51.973
	c0.463-0.703,0.913-1.385,1.371-2.079C222.887,204.91,215.564,225.338,179.32,262.206z M306.556,83.285
	c-23.904,11.513-43.265,7.393-55.284,1.921c-0.986-0.449-2.135-0.298-3.002,0.353c-8.146,6.114-12.273,12.229-12.445,12.486
	c-0.484,0.726-0.629,1.627-0.396,2.468c3.963,14.281,11.98,53.936,1.618,65.775c-3.828,4.371-8.945,11.856-13.904,19.296
	c-1.847,2.774-3.767,5.688-5.733,8.673c-13.126,19.922-31.102,47.207-39.616,49.476c-2.068,0.551-5.231-0.459-8.684-2.767
	c-22.088-14.767-37.013-58.197-41.534-92.303c-0.44-3.28-0.821-6.659-1.133-10.043c-0.412-4.468,2.029-8.722,6.077-10.602
	c8.024-3.197,39.038-18.549,49.699-23.849c-0.155,3.686-2.821,6.927-4.633,8.716c-1.579,1.559-3.592,2.963-5.983,4.175
	l-24.261,12.292c-1.017,0.516-1.654,1.563-1.644,2.704c0.004,0.478,0.125,11.776,1.784,18.855c3.217,13.654,9.572,33,21.587,47.634
	c3.781,4.583,7.888,8.411,12.208,11.377c0.518,0.356,1.11,0.527,1.695,0.527c1.055,0,2.09-0.555,2.645-1.58
	c0.751-1.386,0.193-3.105-1.102-4.003c-3.328-2.307-6.531-5.209-9.541-8.639c7.357-14.103,15.059-25.481,20.367-32.7
	c0.06-0.067,0.116-0.137,0.17-0.209c4.109-5.561,6.845-8.715,6.872-8.746c1.087-1.249,0.956-3.145-0.293-4.232
	c-1.249-1.088-3.145-0.957-4.231,0.292c-0.102,0.117-2.23,2.568-5.594,7.01c-9.467-5.011-22.683-8.427-39.356-10.177
	c-0.807-4.684-1.08-10.646-1.169-13.613l22.576-11.438c2.946-1.493,5.465-3.262,7.486-5.258c5.355-5.287,7.46-11.246,5.959-16.864
	c-0.103-0.388-0.246-0.765-0.412-1.131c-0.3-0.66-0.703-1.572-1.385-2.318c-4.45-4.872-11.291-6.814-17.634-4.659l-34.659,11.802
	c-3.939-5.525-16.003-22.918-22.817-37.868l36.496-25.167l21.841-3.897c1.428-0.255,2.566-1.452,2.587-2.902
	c0.029-1.953-1.706-3.355-3.528-3.024l-63.062,11.251l-0.99-9.427c-0.17-1.616-1.531-2.937-3.154-2.852
	c-1.73,0.091-3.01,1.608-2.831,3.309l1.954,18.615c2.016,19.205,28.813,55.751,29.953,57.297c0.776,1.053,2.145,1.482,3.382,1.06
	l36.758-12.517c3.082-1.047,6.379-0.6,9.008,1.07c-10.877,5.405-41.596,20.599-49.064,23.548c-4.77,1.883-9.227,1.138-12.549-2.1
	c-11.528-11.235-21.858-24.814-30.702-40.361c-12.068-21.208-17.111-38.753-17.16-38.928c-0.051-0.18-0.12-0.356-0.203-0.524
	c-4.206-8.43-8.36-22.222-4.112-25.438c17.901-8.277,64.51-6.474,64.981-6.455c0.26,0.009,0.53-0.014,0.789-0.073
	c0.21-0.047,21.286-4.737,46.878-0.942c5.395,0.801,12.626,8.244,20.361,20.956c6.2,10.19,10.591,20.263,10.635,20.363
	c0.514,1.185,1.724,1.903,3.017,1.795l3.844-0.34c0.286,6.341,4.05,12.141,9.998,14.861l16.969,7.757
	c1.682,0.767,3.708-0.148,4.17-2.044c0.344-1.41-0.459-2.857-1.779-3.46l-16.865-7.71c-4.639-2.122-7.248-7.126-6.347-12.17
	c0.384-2.146,1.407-4.136,2.96-5.755c16.402-17.119,47.41-44.23,70.748-33.509c19.964,9.169,27.219,28.267,27.351,43.083
	C323.317,66.102,316.945,78.286,306.556,83.285z M170.915,191.065c-8.753-12.239-13.867-27.263-16.559-37.407
	c14.466,1.67,25.968,4.647,34.297,8.873C183.693,169.465,177.238,179.258,170.915,191.065z M106.134,51.397l-0.319-3.037
	l27.275-4.866l-24.594,16.959C107.265,57.134,106.412,54.049,106.134,51.397z"/>
<g>
</g>
<g>
</g>
<g>
</g>
<g>
</g>
<g>
</g>
<g>
</g>
<g>
</g>
<g>
</g>
<g>
</g>
<g>
</g>
<g>
</g>
<g>
</g>
<g>
</g>
<g>
</g>
<g>
</g>
</svg>
