<svg height="512pt" viewBox="-108 0 512 512" width="512pt" xmlns="http://www.w3.org/2000/svg"><path d="m60 120c33.085938 0 60-26.914062 60-60s-26.914062-60-60-60-60 26.914062-60 60 26.914062 60 60 60zm0-80c11.027344 0 20 8.972656 20 20s-8.972656 20-20 20-20-8.972656-20-20 8.972656-20 20-20zm176 165c-26.074219 0-48.304688 16.722656-56.558594 40h-37.019531c-4.792969-14.394531-12.097656-36.324219-15.460937-46.355469-9.890626-29.507812-25.578126-59.644531-66.980469-59.644531-.09375 0-.199219 0-.296875 0-32.910156.113281-59.683594 27.03125-59.683594 60v313h40v-313c0-10.988281 8.894531-19.960938 19.824219-20 8.996093-.027344 18.34375-.066406 29.210937 32.355469 5.195313 15.496093 19.839844 59.515625 19.988282 59.957031l4.550781 13.6875h65.867187c8.253906 23.277344 30.484375 40 56.558594 40 33.085938 0 60-26.914062 60-60s-26.914062-60-60-60zm0 80c-11.027344 0-20-8.972656-20-20s8.972656-20 20-20 20 8.972656 20 20-8.972656 20-20 20zm-125.941406 39 59.941406 82.5v105.5h-40v-92.5l-51-70.195312v-25.304688zm0 0"/></svg>