<?xml version="1.0" encoding="iso-8859-1"?>
<!-- Generator: Adobe Illustrator 17.1.0, SVG Export Plug-In . SVG Version: 6.00 Build 0)  -->
<!DOCTYPE svg PUBLIC "-//W3C//DTD SVG 1.1//EN" "http://www.w3.org/Graphics/SVG/1.1/DTD/svg11.dtd">
<svg version="1.1" id="Capa_1" xmlns="http://www.w3.org/2000/svg" xmlns:xlink="http://www.w3.org/1999/xlink" x="0px" y="0px"
	 viewBox="0 0 297.333 297.333" style="enable-background:new 0 0 297.333 297.333;" xml:space="preserve">
<g>
	<path d="M289.083,42.508h-8.417v-6.333c0-5.707-4.626-10.667-10.333-10.667h-6.667v-8.25c0-4.556-3.444-8.25-8-8.25
		s-8,3.694-8,8.25v25.25h-198v-25.25c0-4.556-3.944-8.25-8.5-8.25s-8.5,3.694-8.5,8.25v8.25H27c-5.707,0-10.333,4.626-10.333,10.333
		v6.667H8.25c-4.556,0-8.25,3.444-8.25,8c0,4.556,3.694,8,8.25,8h8.417v6.167c0,5.707,4.626,10.833,10.333,10.833h5.667v7.75
		c0,4.556,3.944,8.25,8.5,8.25s8.5-3.694,8.5-8.25v-24.75h29.699c-0.031,1.888,0.288,3.813,1.016,5.682l0.762,1.959
		c10.018,25.73,27.562,48.048,50.023,63.917v57.673c0,1.032,0.076,2.045,0.21,3.04c-15.914,27.033-35.583,50.859-58.559,70.885
		l-0.399,0.348c-6.248,5.439-6.904,14.914-1.466,21.163c2.966,3.407,7.132,5.151,11.32,5.151c3.493,0,7.001-1.213,9.843-3.686
		l0.407-0.354c23.994-20.915,44.708-45.525,61.719-73.295c23.123,16.427,39.138,38.991,45.618,64.647l0.263,1.041
		c1.716,6.801,7.824,11.334,14.533,11.334c1.215,0,2.449-0.149,3.681-0.46c8.032-2.026,12.901-10.182,10.874-18.214l-0.264-1.044
		c-7.819-30.961-26.315-58.22-52.879-78.484c0.062-0.683,0.099-1.373,0.099-2.072v-56.257
		c23.734-16.423,42.016-39.909,52.042-67.148l0.157-0.43c0.652-1.782,0.929-3.606,0.899-5.396h18.402v24.75
		c0,4.556,3.444,8.25,8,8.25s8-3.694,8-8.25v-8.75h6.667c5.707,0,10.333-4.46,10.333-10.167v-5.833h8.417c4.556,0,8.25-3.444,8.25-8
		C297.333,45.952,293.64,42.508,289.083,42.508z M176.174,92.2c-3.506-8.791-12.091-15.007-22.134-15.007
		c-9.771,0-18.163,5.883-21.84,14.299c-9.125-9.569-16.534-20.745-21.758-32.984h87.827C193.017,71.045,185.483,82.451,176.174,92.2
		z"/>
</g>
<g>
</g>
<g>
</g>
<g>
</g>
<g>
</g>
<g>
</g>
<g>
</g>
<g>
</g>
<g>
</g>
<g>
</g>
<g>
</g>
<g>
</g>
<g>
</g>
<g>
</g>
<g>
</g>
<g>
</g>
</svg>
