<svg height="512pt" viewBox="0 0 512 512" width="512pt" xmlns="http://www.w3.org/2000/svg"><path d="m256 120c33.085938 0 60-26.914062 60-60s-26.914062-60-60-60-60 26.914062-60 60 26.914062 60 60 60zm0-80c11.027344 0 20 8.972656 20 20s-8.972656 20-20 20-20-8.972656-20-20 8.972656-20 20-20zm256 287h-41v-80h-40v80h-75v-128c0-33.085938-26.914062-60-60-60h-80c-33.085938 0-60 26.914062-60 60v128h-75v-80h-40v80h-41v40h41v80h40v-80h115v145h40v-145h40v145h40v-145h115v80h40v-80h41zm-316-128c0-11.027344 8.972656-20 20-20h80c11.027344 0 20 8.972656 20 20v128h-120zm0 0"/></svg>