<svg height="512pt" viewBox="-22 0 512 512" width="512pt" xmlns="http://www.w3.org/2000/svg"><g fill-rule="evenodd"><path d="m458.1875 188.5h-64.816406c-5.523438 0-10 4.476562-10 10v54.277344h-26.601563c.011719-7.558594.035157-15.121094.0625-22.691406.078125-21.832032.15625-44.410157-.089843-66.570313-.472657-40.808594-31.589844-72.773437-70.835938-72.773437h-9.246094c7.992188-9.601563 12.808594-21.933594 12.808594-35.371094 0-30.53125-24.839844-55.371094-55.375-55.371094-30.53125 0-55.371094 24.839844-55.371094 55.371094 0 13.4375 4.816406 25.773437 12.808594 35.371094h-9.246094c-39.25 0-70.363281 31.96875-70.839844 72.78125-.246093 22.15625-.167968 44.734374-.085937 66.566406.027344 7.566406.046875 15.132812.0625 22.6875h-26.605469v-54.277344c0-5.523438-4.476562-10-10-10h-64.816406c-5.523438 0-10 4.476562-10 10v128.554688c0 5.523437 4.476562 10 10 10h64.816406c5.523438 0 10-4.476563 10-10v-54.277344h81.558594v68.558594c0 5.523437 4.476562 10 10 10s10-4.476563 10-10v-68.558594h95.4375v200.363281c0 10.398437-8.457031 18.859375-18.859375 18.859375-10.398437 0-18.859375-8.460938-18.859375-18.859375v-139.34375c0-5.523437-4.476562-10-10-10s-10 4.476563-10 10v139.34375c0 10.398437-8.457031 18.859375-18.859375 18.859375-10.398437 0-18.859375-8.460938-18.859375-18.859375v-51.804687c0-5.523438-4.476562-10-10-10s-10 4.476562-10 10v51.804687c0 21.425781 17.433594 38.859375 38.859375 38.859375 11.441406 0 21.742187-4.96875 28.859375-12.863281 7.117188 7.894531 17.421875 12.863281 28.859375 12.863281 21.429687 0 38.859375-17.433594 38.859375-38.859375v-200.363281h81.558594v54.277344c0 5.519531 4.476562 10 10 10h64.816406c5.523438 0 10-4.480469 10-10v-128.554688c0-5.523438-4.476562-10-10-10zm-393.371094 128.554688h-44.816406v-108.554688h44.816406zm133.90625-261.683594c0-19.503906 15.867188-35.371094 35.371094-35.371094s35.371094 15.867188 35.371094 35.371094c0 19.5-15.855469 35.363281-35.351563 35.371094h-.039062c-19.496094-.011719-35.351563-15.871094-35.351563-35.371094zm-67.296875 197.40625c-.011719-7.582032-.039062-15.167969-.066406-22.757813-.078125-21.761719-.160156-44.265625.085937-66.269531.351563-30.21875 22.207032-53.007812 50.839844-53.007812h51.792969.019531.015625 51.792969c28.632812 0 50.488281 22.789062 50.839844 53 .246094 22.007812.164062 44.511718.085937 66.273437-.027343 7.589844-.054687 15.179687-.066406 22.757813h-34.953125v-60.207032c0-5.523437-4.476562-10-10-10s-10 4.476563-10 10v60.210938h-95.4375v-60.210938c0-5.519531-4.476562-10-10-10s-10 4.480469-10 10v60.210938zm316.761719 64.277344h-44.816406v-108.554688h44.816406zm0 0"/><path d="m176.375 391.335938c5.507812 0 10-4.492188 10-10 0-5.507813-4.492188-10-10-10s-10 4.492187-10 10c0 5.507812 4.492188 10 10 10zm0 0"/></g></svg>